<mxfile host="65bd71144e">
    <diagram id="zMDbHCYsuN2KE2_6iNYd" name="Page-1">
        <mxGraphModel dx="873" dy="594" grid="1" gridSize="10" guides="1" tooltips="1" connect="1" arrows="1" fold="1" page="1" pageScale="1" pageWidth="827" pageHeight="1169" math="0" shadow="0">
            <root>
                <mxCell id="0"/>
                <mxCell id="1" parent="0"/>
                <mxCell id="4" value="" style="edgeStyle=none;html=1;" edge="1" parent="1" source="2" target="3">
                    <mxGeometry relative="1" as="geometry"/>
                </mxCell>
                <mxCell id="2" value="&lt;font color=&quot;#000000&quot;&gt;INICIO&lt;/font&gt;" style="ellipse;whiteSpace=wrap;html=1;fillColor=#60a917;fontColor=#ffffff;strokeColor=#2D7600;" vertex="1" parent="1">
                    <mxGeometry x="320" y="50" width="120" height="80" as="geometry"/>
                </mxCell>
                <mxCell id="6" value="" style="edgeStyle=none;html=1;" edge="1" parent="1" source="3" target="5">
                    <mxGeometry relative="1" as="geometry"/>
                </mxCell>
                <mxCell id="3" value="&lt;font color=&quot;#000000&quot;&gt;n RESULTADO=0&lt;br&gt;CANT_NUM=0&lt;/font&gt;" style="shape=parallelogram;perimeter=parallelogramPerimeter;whiteSpace=wrap;html=1;fixedSize=1;fillColor=#1ba1e2;fontColor=#ffffff;strokeColor=#006EAF;" vertex="1" parent="1">
                    <mxGeometry x="310" y="180" width="130" height="70" as="geometry"/>
                </mxCell>
                <mxCell id="7" style="edgeStyle=none;html=1;" edge="1" parent="1" source="5">
                    <mxGeometry relative="1" as="geometry">
                        <mxPoint x="140" y="410" as="targetPoint"/>
                        <Array as="points">
                            <mxPoint x="140" y="330"/>
                        </Array>
                    </mxGeometry>
                </mxCell>
                <mxCell id="9" style="edgeStyle=none;html=1;" edge="1" parent="1" source="5">
                    <mxGeometry relative="1" as="geometry">
                        <mxPoint x="520" y="460" as="targetPoint"/>
                        <Array as="points">
                            <mxPoint x="520" y="330"/>
                        </Array>
                    </mxGeometry>
                </mxCell>
                <mxCell id="5" value="&lt;font color=&quot;#000000&quot;&gt;CANT_NUM&amp;lt;n&lt;/font&gt;" style="rhombus;whiteSpace=wrap;html=1;fillColor=#a20025;fontColor=#ffffff;strokeColor=#6F0000;" vertex="1" parent="1">
                    <mxGeometry x="330" y="280" width="90" height="90" as="geometry"/>
                </mxCell>
                <mxCell id="10" value="&lt;font color=&quot;#000000&quot;&gt;VERDADEROS&lt;/font&gt;" style="text;html=1;align=center;verticalAlign=middle;resizable=0;points=[];autosize=1;strokeColor=none;fillColor=none;" vertex="1" parent="1">
                    <mxGeometry x="210" y="300" width="100" height="20" as="geometry"/>
                </mxCell>
                <mxCell id="11" value="&lt;font color=&quot;#000000&quot;&gt;FALSO&lt;/font&gt;" style="text;html=1;align=center;verticalAlign=middle;resizable=0;points=[];autosize=1;strokeColor=none;fillColor=none;" vertex="1" parent="1">
                    <mxGeometry x="440" y="300" width="50" height="20" as="geometry"/>
                </mxCell>
                <mxCell id="14" style="edgeStyle=none;html=1;fontColor=#000000;" edge="1" parent="1" source="12">
                    <mxGeometry relative="1" as="geometry">
                        <mxPoint x="380" y="370" as="targetPoint"/>
                        <Array as="points">
                            <mxPoint x="130" y="530"/>
                            <mxPoint x="380" y="530"/>
                            <mxPoint x="380" y="440"/>
                            <mxPoint x="380" y="370"/>
                        </Array>
                    </mxGeometry>
                </mxCell>
                <mxCell id="12" value="cant_num=cant_num+1&lt;br&gt;resultada=cant_num+resultado" style="rounded=0;whiteSpace=wrap;html=1;fontColor=#000000;fillColor=#660033;" vertex="1" parent="1">
                    <mxGeometry x="40" y="400" width="180" height="60" as="geometry"/>
                </mxCell>
                <mxCell id="15" style="edgeStyle=none;html=1;fontColor=#000000;" edge="1" parent="1" source="13" target="16">
                    <mxGeometry relative="1" as="geometry">
                        <mxPoint x="520" y="690" as="targetPoint"/>
                    </mxGeometry>
                </mxCell>
                <mxCell id="13" value="RESULTADO" style="shape=document;whiteSpace=wrap;html=1;boundedLbl=1;fillColor=#006666;" vertex="1" parent="1">
                    <mxGeometry x="460" y="460" width="120" height="80" as="geometry"/>
                </mxCell>
                <mxCell id="16" value="FALSO" style="ellipse;whiteSpace=wrap;html=1;fontColor=#000000;fillColor=#663300;" vertex="1" parent="1">
                    <mxGeometry x="460" y="650" width="120" height="80" as="geometry"/>
                </mxCell>
            </root>
        </mxGraphModel>
    </diagram>
</mxfile>